# xmcd
#
# Track frame offsets:
#	150
#	17134
#	36468
#	52632
#	68118
#	82906
#	101694
#	120182
#	134216
#	152967
#	166596
#	183522
#
# Disc length: 2727 seconds
#
# Revision: 2
# Processed by: cddbd v1.5.2PL0 Copyright (c) Steve Scherf et al.
# Submitted via: EZCDAudioConverter 8.0.2.1
#
DISCID=950aa50c
DTITLE=JOÃO PAULO and DANIEL - SUCESSOS DE OURO CD 02 [CD 398422836-2) CHANTECLE
DTITLE=R
DYEAR=1997
DGENRE=Sertanejo
TTITLE0=CUIDA DE MIM (BY GILMAR SINISTRO)
TTITLE1=QUE DURE PARA SEMPRE (BY GILMAR SINISTRO)
TTITLE2=ROSTO MOLHADO (BY GILMAR SINISTRO)
TTITLE3=VOCÊ NÃO MORRE MAIS (BY GILMAR SINISTRO)
TTITLE4=TOMA CONTA DE MIM (BY GILMAR SINISTRO)
TTITLE5=NELORE VALONTE (BY GILMAR SINISTRO)
TTITLE6=COM QUAL CARÍCIA (BY GILMAR SINISTRO)
TTITLE7=FAZENDA SÃO FRANCISCO (MAIOR PROEZA) (BY GILMAR SINISTRO)
TTITLE8=MINHA ESTRELA PERDIDA (BY GILMAR SINISTRO)
TTITLE9=PEDINDO BIS (BY GILMAR SINISTRO)
TTITLE10=PORQUE FUI TE AMAR ASSIM (BY GILMAR SINISTRO)
TTITLE11=ESTOU APAIXONADO (ESTOY ENAMORADO) (BY GILMAR SINISTRO)
EXTD=
EXTT0=
EXTT1=
EXTT2=
EXTT3=
EXTT4=
EXTT5=
EXTT6=
EXTT7=
EXTT8=
EXTT9=
EXTT10=
EXTT11=
PLAYORDER=
